# xmcd
# 
# Track frame offsets:
#     150
#     20960
#     36095
#     60207
# 
# Disc length: 1147
# 
# Revision: 0
# Processed by: cddbd v1.5.2PL0 Copyright (c) Steve Scherf et al.
# Submitted via: fre:ac v1.0.17
# 
DISCID=2b047904
DTITLE=Extreme - Stop The World
DYEAR=1992
DGENRE=
TTITLE0=Stop The World [radio edit]
TTITLE1=Monica
TTITLE2=Warheads
TTITLE3=Don't Leave Me Alone
EXTD=
EXTT0=
EXTT1=
EXTT2=
EXTT3=
PLAYORDER=
